<svg width="141" height="30" fill="none" xmlns="http://www.w3.org/2000/svg"><path d="M0 29.567V0h19.58v5.154H6.145v7.045h12.43v5.154H6.143v7.06h13.494v5.154H0ZM37.93 14.986v4.88H24.679v-4.88h13.253ZM54.674 7.392v4.62H41.549v-4.62h13.125ZM44.529 2.079h6.044v20.674c0 .567.085 1.01.256 1.328.17.308.406.524.71.65.311.125.67.187 1.078.187.283 0 .567-.024.85-.072.285-.058.502-.101.654-.13l.95 4.577a16.79 16.79 0 0 1-1.277.332c-.548.134-1.215.216-2 .245-1.457.058-2.734-.14-3.831-.592-1.088-.452-1.935-1.155-2.54-2.108-.606-.953-.904-2.156-.894-3.609V2.08ZM58.611 29.567V7.392h5.86v3.869h.227c.398-1.377 1.065-2.416 2.001-3.119.937-.712 2.015-1.068 3.235-1.068.303 0 .63.02.98.058.35.038.657.091.921.159v5.457a7.78 7.78 0 0 0-1.177-.231c-.502-.067-.96-.101-1.377-.101-.889 0-1.683.197-2.383.592-.69.385-1.24.924-1.646 1.617-.397.693-.596 1.491-.596 2.396v12.546H58.61ZM80.551 29.986c-1.39 0-2.63-.246-3.717-.737a6.013 6.013 0 0 1-2.583-2.209c-.624-.981-.936-2.204-.936-3.667 0-1.232.222-2.266.667-3.104a5.46 5.46 0 0 1 1.816-2.02 8.731 8.731 0 0 1 2.61-1.156 19.58 19.58 0 0 1 3.094-.548 77.09 77.09 0 0 0 3.065-.376c.775-.125 1.338-.308 1.688-.548.35-.24.525-.597.525-1.069v-.086c0-.914-.284-1.622-.851-2.122-.558-.5-1.353-.751-2.384-.751-1.088 0-1.953.245-2.597.736-.643.481-1.069 1.088-1.277 1.82l-5.59-.463c.284-1.347.842-2.512 1.674-3.493.833-.992 1.906-1.752 3.221-2.282 1.325-.539 2.857-.808 4.597-.808 1.211 0 2.37.144 3.477.433 1.116.289 2.104.736 2.965 1.343a6.49 6.49 0 0 1 2.058 2.338c.501.944.752 2.075.752 3.393v14.957h-5.733v-3.075h-.17a6.244 6.244 0 0 1-1.405 1.833c-.586.52-1.29.93-2.114 1.227-.823.29-1.774.434-2.852.434Zm1.731-4.245c.89 0 1.675-.178 2.356-.534a4.2 4.2 0 0 0 1.603-1.473c.388-.616.582-1.313.582-2.093v-2.353c-.19.125-.45.24-.78.346-.322.096-.687.188-1.093.275-.407.077-.814.149-1.22.216-.407.058-.776.11-1.107.159-.71.106-1.33.274-1.859.505-.53.231-.941.544-1.234.939-.294.385-.44.866-.44 1.443 0 .838.298 1.478.894 1.92.605.433 1.371.65 2.298.65ZM103.559 16.747v12.82h-6.045V7.392h5.761v3.912h.255a6.172 6.172 0 0 1 2.427-3.06c1.135-.76 2.511-1.141 4.129-1.141 1.513 0 2.833.337 3.958 1.01 1.126.674 2.001 1.637 2.625 2.888.625 1.242.937 2.724.937 4.447v14.119h-6.045V16.545c.01-1.357-.331-2.416-1.021-3.176-.691-.77-1.642-1.155-2.852-1.155-.814 0-1.533.178-2.157.534-.615.356-1.097.876-1.447 1.559-.341.674-.516 1.487-.525 2.44ZM140.503 13.715l-5.533.347a2.938 2.938 0 0 0-.61-1.3 3.251 3.251 0 0 0-1.235-.938c-.501-.24-1.102-.361-1.802-.361-.936 0-1.726.202-2.369.606-.644.395-.965.924-.965 1.588 0 .53.208.977.624 1.343.416.366 1.13.66 2.143.88l3.944.81c2.119.442 3.699 1.154 4.739 2.136 1.041.982 1.561 2.271 1.561 3.869 0 1.453-.421 2.729-1.263 3.826-.832 1.097-1.977 1.953-3.434 2.57-1.447.606-3.116.909-5.008.909-2.885 0-5.184-.611-6.896-1.834-1.703-1.231-2.701-2.906-2.994-5.024l5.945-.317c.18.895.615 1.578 1.306 2.05.69.462 1.575.693 2.653.693 1.059 0 1.911-.207 2.554-.62.653-.424.984-.968.993-1.632-.009-.558-.241-1.016-.695-1.372-.454-.366-1.154-.645-2.1-.837l-3.774-.765c-2.129-.433-3.713-1.184-4.754-2.252-1.031-1.069-1.546-2.43-1.546-4.086 0-1.425.378-2.652 1.135-3.682.766-1.03 1.84-1.823 3.221-2.382 1.39-.558 3.017-.837 4.881-.837 2.752 0 4.919.592 6.498 1.776 1.59 1.184 2.517 2.796 2.781 4.836Z" fill="#fff"/><path d="M0 30V0h19.942v5.23H6.257v7.148h12.66v5.23H6.256v7.162H20V30H0Z" fill="#B8FF20"/></svg>