<svg aria-hidden="true" style="position: absolute; width: 0; height: 0; overflow: hidden;" version="1.1" xmlns="http://www.w3.org/2000/svg" xmlns:xlink="http://www.w3.org/1999/xlink">
<defs>
<symbol id="call" viewBox="0 0 32 32">
<path d="M26.68 20.507c-1.64 0-3.227-0.267-4.707-0.747-0.125-0.044-0.268-0.069-0.418-0.069-0.363 0-0.692 0.149-0.928 0.389l-0 0-2.093 2.627c-3.773-1.8-7.307-5.2-9.187-9.107l2.6-2.213c0.36-0.373 0.467-0.893 0.32-1.36-0.493-1.48-0.747-3.067-0.747-4.707 0-0.72-0.6-1.32-1.32-1.32h-4.613c-0.72 0-1.587 0.32-1.587 1.32 0 12.387 10.307 22.68 22.68 22.68 0.947 0 1.32-0.84 1.32-1.573v-4.6c0-0.72-0.6-1.32-1.32-1.32z"></path>
</symbol>
<symbol id="email" viewBox="0 0 32 32">
<path   d="M26.667 5.333h-21.333c-1.467 0-2.653 1.2-2.653 2.667l-0.013 16c0 1.467 1.2 2.667 2.667 2.667h21.333c1.467 0 2.667-1.2 2.667-2.667v-16c0-1.467-1.2-2.667-2.667-2.667zM26.133 11l-9.427 5.893c-0.427 0.267-0.987 0.267-1.413 0l-9.427-5.893c-0.348-0.198-0.579-0.566-0.579-0.988 0-0.626 0.507-1.133 1.133-1.133 0.241 0 0.465 0.075 0.649 0.204l-0.004-0.002 8.933 5.587 8.933-5.587c0.18-0.126 0.404-0.202 0.645-0.202 0.626 0 1.133 0.507 1.133 1.133 0 0.422-0.231 0.79-0.573 0.985l-0.006 0.003z"></path>
</symbol>
<symbol id="telegram" viewBox="0 0 28 32">
<path  d="M27.919 6.162l-4.225 19.925c-0.319 1.407-1.15 1.757-2.331 1.094l-6.438-4.744-3.106 2.988c-0.344 0.344-0.632 0.631-1.294 0.631l0.463-6.556 11.93-10.781c0.52-0.463-0.112-0.719-0.805-0.256l-14.75 9.287-6.35-1.988c-1.382-0.43-1.407-1.38 0.287-2.043l24.838-9.569c1.15-0.431 2.156 0.256 1.78 2.012z"></path>
</symbol>
<symbol id="twitter" viewBox="0 0 32 32">
<path  d="M31.524 6.583c-1.113 0.493-2.31 0.826-3.567 0.977 1.284-0.778 2.25-1.973 2.717-3.393l0.013-0.044c-1.135 0.686-2.456 1.208-3.864 1.493l-0.079 0.013c-1.137-1.212-2.748-1.967-4.536-1.967-3.431 0-6.213 2.782-6.213 6.213 0 0.504 0.060 0.994 0.173 1.463l-0.009-0.042c-5.174-0.267-9.726-2.726-12.778-6.458l-0.025-0.032c-0.528 0.894-0.84 1.97-0.84 3.118 0 0.001 0 0.003 0 0.004v-0c0 0.001 0 0.002 0 0.003 0 2.145 1.087 4.037 2.741 5.153l0.022 0.014c-1.038-0.034-2.002-0.318-2.844-0.793l0.031 0.016v0.080c0 0 0 0.001 0 0.001 0 2.996 2.12 5.496 4.942 6.083l0.040 0.007c-0.49 0.138-1.053 0.217-1.635 0.217-0.414 0-0.818-0.040-1.21-0.117l0.040 0.006c0.817 2.487 3.096 4.261 5.797 4.312l0.006 0c-2.097 1.658-4.78 2.66-7.696 2.66-0.007 0-0.013 0-0.020 0h0.001c-0.496 0-0.99-0.030-1.483-0.087 2.685 1.75 5.971 2.79 9.499 2.79 0.007 0 0.014 0 0.022 0h-0.001c11.427 0 17.674-9.463 17.674-17.671 0-0.267-0.007-0.536-0.020-0.803 1.22-0.889 2.248-1.953 3.070-3.168l0.028-0.045 0.003-0.004z"></path>
</symbol>
<symbol id="close" viewBox="0 0 32 32">
<path  d="M31.556 3.579l-3.132-3.134-12.423 12.421-12.421-12.421-3.134 3.134 12.421 12.421-12.421 12.423 3.134 3.132 12.421-12.423 12.423 12.423 3.132-3.132-12.423-12.423 12.423-12.421z"></path>
</symbol>
</defs>
</svg>
