<svg width="32" height="32" fill="none" xmlns="http://www.w3.org/2000/svg"><path d="M31.524 6.583c-1.113.493-2.31.826-3.567.977a6.227 6.227 0 0 0 2.73-3.437 12.399 12.399 0 0 1-3.943 1.506 6.213 6.213 0 0 0-10.584 5.667 17.638 17.638 0 0 1-12.803-6.49 6.208 6.208 0 0 0-.84 3.122 6.213 6.213 0 0 0 2.763 5.17 6.197 6.197 0 0 1-2.813-.777v.08a6.213 6.213 0 0 0 4.982 6.091 6.257 6.257 0 0 1-2.805.107 6.215 6.215 0 0 0 5.803 4.312 12.464 12.464 0 0 1-7.715 2.66c-.496 0-.99-.03-1.483-.087a17.567 17.567 0 0 0 9.52 2.79c11.427 0 17.674-9.463 17.674-17.671 0-.267-.007-.536-.02-.803a12.627 12.627 0 0 0 3.098-3.213l.003-.004Z" fill="#fff"/></svg>